# xmcd CD database file
#
# Track frame offsets:
#	150
#	13722
#	26492
#	40902
#	54725
#	68522
#	81342
#	94077
#	107662
#	119560
#	133962
#	147105
#	159887
#	173580
#	186567
#	199597
#	213295
#	226340
#
# Disc length: 3188 seconds
#
# Revision: 0
# Processed by: cddbd v1.5.1PL0 Copyright (c) Steve Scherf et al.
# Submitted via: CDex 1.51
#
DISCID=f60c7212
DTITLE=Skip James - Illinois Blues
DYEAR=2004
DGENRE=Blues
TTITLE0=Devil Got My Woman
TTITLE1=Cherry Ball Blues
TTITLE2=Cypress Grove Blues
TTITLE3=Illinois Blues
TTITLE4=Hard Luck Child
TTITLE5=4 O'Clock Blues
TTITLE6=Hard Time Killin' Floor Blues
TTITLE7=Jesus Is A Mighty Good Leader
TTITLE8=Drunken Spree
TTITLE9=Yola My Blues Away
TTITLE10=Be Ready When He Comes
TTITLE11=I'm So Glad
TTITLE12=Special Rider Blues
TTITLE13=How Long 'Buck'
TTITLE14=Little Cow And Calf Is Gonna Die Blues
TTITLE15=What Am I To Do Blues
TTITLE16=If You Haven't Any Hay Get On Down The Road
TTITLE17=22-20 Blues
EXTD=YEAR: 2004
EXTT0=
EXTT1=
EXTT2=
EXTT3=
EXTT4=
EXTT5=
EXTT6=
EXTT7=
EXTT8=
EXTT9=
EXTT10=
EXTT11=
EXTT12=
EXTT13=
EXTT14=
EXTT15=
EXTT16=
EXTT17=
PLAYORDER=
